<svg xmlns="http://www.w3.org/2000/svg" xmlns:svg="http://www.w3.org/2000/svg" version="1.1" id="svg300" xml:space="preserve" width="682.66669" height="682.66669" viewBox="0 0 682.66669 682.66669"><defs id="defs304"><clipPath clipPathUnits="userSpaceOnUse" id="clipPath314"><path d="M 0,512 H 512 V 0 H 0 Z" id="path312"/></clipPath></defs><g id="g306" transform="matrix(1.3333333,0,0,-1.3333333,0,682.66667)"><g id="g308"><g id="g310" clip-path="url(#clipPath314)"><g id="g316" transform="translate(293.3999,264.1865)"><path d="m 0,0 v -150.19 h -210.87 c -37.3,0 -67.53,30.23 -67.53,67.53 V 1.33 c 0,76.9 62.36,139.24 139.27,139.2 17.27,-0.01 33.78,-3.2 49.01,-9.02 29.01,-11.06 53.36,-31.64 69.4,-57.87 C -7.57,52.17 0,26.92 0,0 Z" style="fill:none;stroke:#000000;stroke-width:30;stroke-linecap:round;stroke-linejoin:round;stroke-miterlimit:10;stroke-dasharray:none;stroke-opacity:1" id="path318"/></g><path d="M 497,113.997 H 293.4 v 80 H 497 Z" style="fill:none;stroke:#000000;stroke-width:30;stroke-linecap:round;stroke-linejoin:round;stroke-miterlimit:10;stroke-dasharray:none;stroke-opacity:1" id="path320"/><g id="g322" transform="translate(497,113.9966)"><path d="M 0,0 V -30" style="fill:none;stroke:#000000;stroke-width:30;stroke-linecap:round;stroke-linejoin:round;stroke-miterlimit:10;stroke-dasharray:none;stroke-opacity:1" id="path324"/></g><g id="g326" transform="translate(362.2002,113.9966)"><path d="M 0,0 V 30" style="fill:none;stroke:#000000;stroke-width:30;stroke-linecap:round;stroke-linejoin:round;stroke-miterlimit:10;stroke-dasharray:none;stroke-opacity:1" id="path328"/></g><g id="g330" transform="translate(428.2002,113.9966)"><path d="M 0,0 V 30" style="fill:none;stroke:#000000;stroke-width:30;stroke-linecap:round;stroke-linejoin:round;stroke-miterlimit:10;stroke-dasharray:none;stroke-opacity:1" id="path332"/></g><g id="g334" transform="translate(233.3999,265.5166)"><path d="m 0,0 c 0,-43.741 -35.459,-79.2 -79.2,-79.2 -43.741,0 -79.2,35.459 -79.2,79.2 0,43.741 35.459,79.2 79.2,79.2 C -35.459,79.2 0,43.741 0,0 Z" style="fill:none;stroke:#000000;stroke-width:30;stroke-linecap:round;stroke-linejoin:round;stroke-miterlimit:10;stroke-dasharray:none;stroke-opacity:1" id="path336"/></g><g id="g338" transform="translate(311.54,376.6865)"><path d="m 0,0 -38.86,-38.86 c -16.04,26.23 -40.39,46.81 -69.4,57.87 l 23.588,23.593 c 11.615,11.618 30.45,11.619 42.067,0.002 z" style="fill:none;stroke:#000000;stroke-width:30;stroke-linecap:round;stroke-linejoin:round;stroke-miterlimit:10;stroke-dasharray:none;stroke-opacity:1" id="path340"/></g></g></g></g></svg>