<svg xmlns="http://www.w3.org/2000/svg" version="1.1" xmlns:xlink="http://www.w3.org/1999/xlink" width="512" height="512" x="0" y="0" viewBox="0 0 32 32" style="enable-background:new 0 0 512 512" xml:space="preserve" class=""><g><path d="M8 13a1 1 0 0 1 1-1h6a1 1 0 1 1 0 2H9a1 1 0 0 1-1-1m7 3H9a1 1 0 1 0 0 2h6a1 1 0 1 0 0-2m0 4H9a1 1 0 1 0 0 2h6a1 1 0 1 0 0-2m0 4H9a1 1 0 1 0 0 2h6a1 1 0 1 0 0-2m15 5a1 1 0 0 1-1 1H3a1 1 0 1 1 0-2h1V9.618a1.99 1.99 0 0 1 1.105-1.789l12-6c.626-.312 1.352-.28 1.946.087s.948 1.003.948 1.702V11h6c1.103 0 2 .897 2 2v15h1a1 1 0 0 1 1 1zM20 13v15h6V13zM6 28h12V3.618l-12 6z" fill="#1a4685" opacity="1" data-original="#000000"></path></g></svg>
